<svg version="1.1" xmlns="http://www.w3.org/2000/svg" xmlns:xlink="http://www.w3.org/1999/xlink" width="186.05703" height="189.58201" viewBox="0,0,186.05703,189.58201"><g transform="translate(-147.15945,-88.60532)"><g data-paper-data="{&quot;isPaintingLayer&quot;:true}" stroke-linejoin="miter" stroke-dasharray="" stroke-dashoffset="0" style="mix-blend-mode: normal"><g fill-rule="nonzero" stroke-linecap="butt" stroke-miterlimit="10"><path d="M148.44911,166.35109l15.76175,-41.55244l59.29879,22.49334l-15.76175,41.55244z" fill="#ededed" stroke="#000000" stroke-width="2"/><path d="M148.44911,166.35109l15.76175,-41.55244l59.29879,22.49334l-15.76175,41.55244z" fill="#ededed" stroke="#000000" stroke-width="0"/><path d="M160.48466,134.62198l3.7262,-9.82332l59.29879,22.49334l-3.7262,9.82332z" fill="#ff0000" stroke="#000000" stroke-width="0"/><path d="M195.25552,165.49091l5.1713,-13.63301l17.04126,6.46412l-5.1713,13.63301z" fill="none" stroke="#000000" stroke-width="0.5"/><path d="M189.42743,180.25079l4.86711,-12.83106l17.44224,6.61622l-4.86711,12.83107z" fill="none" stroke="#000000" stroke-width="0.5"/><path d="M150.73372,165.57341l10.87494,-28.66943l37.29032,14.14504l-10.87495,28.66943z" fill="none" stroke="#000000" stroke-width="0.5"/><path d="M151.13468,165.72551l10.87494,-28.66943l14.03399,5.3234l-10.87494,28.66943z" fill="#cbcbcb" stroke="#000000" stroke-width="0.5"/><path d="M163.55169,133.2515l1.9709,-5.19584l18.92769,7.17969l-1.97089,5.19583z" fill="#ffffff" stroke="#000000" stroke-width="0.5"/><path d="M185.17919,141.02409l1.75973,-4.63914l4.63914,1.75973l-1.75973,4.63914z" fill="#ffffff" stroke="none" stroke-width="0"/><path d="M192.78319,144.02124l1.75973,-4.63914l4.63914,1.75973l-1.75973,4.63914z" fill="#ffffff" stroke="none" stroke-width="0"/><path d="M202.55771,160.4635c0.79693,-2.10095 3.14611,-3.15805 5.24706,-2.36111c2.10095,0.79693 3.15805,3.14612 2.36112,5.24707c-0.79693,2.10095 -3.14611,3.15805 -5.24706,2.36112c-2.10095,-0.79693 -3.15805,-3.14611 -2.36112,-5.24706z" fill="#0024ff" stroke="none" stroke-width="0"/><path d="M194.40088,171.61472c0.48594,-1.28106 1.91839,-1.92563 3.19944,-1.4397c1.28106,0.48594 1.92564,1.91836 1.4397,3.19942c-0.48594,1.28106 -1.91836,1.92564 -3.19942,1.43971c-1.28106,-0.48594 -1.92566,-1.91837 -1.43972,-3.19943z" fill="#0024ff" stroke="none" stroke-width="0"/></g><path d="M266.57719,169.63096c6.08948,13.18909 -0.34401,29.13444 -14.37381,35.61208c-14.0298,6.47763 -30.33624,1.03696 -36.42781,-12.15667c-4.31359,-9.34274 -6.79347,-30.10222 -0.38264,-30.51062c3.94079,-0.25106 12.77309,1.35673 16.86487,-0.53247c4.78972,-2.21182 7.08356,-16.17247 14.08709,-13.0385c7.941,3.55347 16.22223,11.94083 20.23231,20.6262z" fill="#ec1c2c" fill-rule="nonzero" stroke="#000000" stroke-width="2.5" stroke-linecap="butt" stroke-miterlimit="10"/><path d="M243.71554,165.4964c-3.16351,1.65998 -6.229,3.17446 -9.30665,5.03711c-2.05481,1.24391 -4.13419,2.22709 -6.49515,1.33126c-0.51422,-0.19765 -0.34391,-1.02636 0.2189,-0.95248c1.38376,0.17729 2.59081,-0.0496 3.7028,-0.49912c0.09764,0.02542 3.67497,-2.23647 5.15965,-3.59163c1.83498,-1.54113 3.71789,-2.98323 6.12779,-3.25769c1.15219,-0.13104 1.62027,1.39091 0.59268,1.93255z" fill="#000000" fill-rule="nonzero" stroke="#000000" stroke-width="0" stroke-linecap="butt" stroke-miterlimit="10"/><path d="M224.27524,189.00671c1.43822,3.11501 4.28358,4.8644 2.5277,5.67509c-1.75588,0.8107 -4.34341,-1.05773 -5.78163,-4.17274c-1.4378,-3.1141 -1.18177,-6.29542 0.57411,-7.10612c1.75588,-0.8107 1.24243,2.49058 2.67981,5.60376z" fill="#ffffff" fill-rule="nonzero" stroke="none" stroke-width="0" stroke-linecap="butt" stroke-miterlimit="10"/><path d="M222.37414,157.30934c0.67126,-0.98181 1.33897,-1.96417 2.0089,-2.94646c1.13924,0.71643 2.27079,1.40667 3.33351,2.29611c3.87604,3.23739 5.46475,7.81391 7.43186,12.22235c-0.30316,0.238 -0.82289,0.54845 -1.13205,0.76388c-2.3429,-5.68993 -6.03368,-10.19359 -11.64223,-12.33588z" fill="#99661d" fill-rule="nonzero" stroke="#000000" stroke-width="2" stroke-linecap="butt" stroke-miterlimit="10"/><path d="M239.14903,171.54195c4.76318,-0.22618 9.08905,3.46399 9.29503,8.29151c0.18553,4.34838 -3.1941,8.29421 -7.60694,8.457c-3.93356,0.14512 -7.49966,-2.92421 -7.61898,-6.92239c-0.10501,-3.5187 2.65433,-6.70553 6.23782,-6.78095c3.10383,-0.06531 5.91201,2.38447 5.94292,5.55325c0.02623,2.68891 -2.11466,5.11937 -4.86869,5.10489c-2.27392,-0.01195 -4.32815,-1.84498 -4.26687,-4.18412c0.0487,-1.85883 1.57556,-3.53937 3.49956,-3.42883c1.44352,0.08292 2.75531,1.30698 2.59081,2.815c-0.1121,1.02758 -1.04151,1.98228 -2.13043,1.75278c-0.60876,-0.12831 -1.2429,-0.79417 -0.91475,-1.44586c0.12108,-0.24048 0.71514,-0.53477 0.7613,-0.07673" fill="none" fill-rule="evenodd" stroke="#000000" stroke-width="1.5" stroke-linecap="round" stroke-miterlimit="4"/><path d="M258.06092,179.19461c-4.69938,0.80926 -9.44558,-2.3219 -10.24269,-7.08761c-0.71798,-4.29271 2.15164,-8.6236 6.51112,-9.32694c3.88598,-0.62695 7.80193,1.98133 8.41121,5.93461c0.53621,3.4792 -1.81099,6.98069 -5.35811,7.49548c-3.07233,0.44589 -6.16003,-1.64059 -6.57975,-4.78161c-0.35616,-2.66533 1.47015,-5.34027 4.20511,-5.66402c2.25819,-0.26731 4.52192,1.29963 4.74828,3.62861c0.17988,1.85075 -1.1291,3.70603 -3.05211,3.83256c-1.44279,0.09493 -2.89492,-0.95882 -2.91682,-2.47561c-0.01492,-1.03356 0.79024,-2.09516 1.89911,-2.00108c0.6199,0.05259 1.33099,0.63557 1.08534,1.32262c-0.09065,0.25353 -0.64407,0.61853 -0.74611,0.16961" fill="none" fill-rule="evenodd" stroke="#000000" stroke-width="1.5" stroke-linecap="round" stroke-miterlimit="4"/><text transform="translate(172.35517,157.21468) rotate(20.87755) scale(0.08448,0.08448)" font-size="40" xml:space="preserve" fill="#000000" fill-rule="nonzero" stroke="none" stroke-width="1" stroke-linecap="butt" stroke-linejoin="miter" stroke-miterlimit="10" stroke-dasharray="" stroke-dashoffset="0" font-family="Sans Serif" font-weight="normal" text-anchor="start" style="mix-blend-mode: normal"><tspan x="0" dy="0">Web Request</tspan></text><g fill-rule="nonzero" stroke-linecap="butt" stroke-miterlimit="10"><path d="M276.97326,192.38979l-22.27893,-38.45371l54.87665,-31.79388l22.27893,38.4537z" fill="#ededed" stroke="#000000" stroke-width="2"/><path d="M276.97326,192.38979l-22.27893,-38.45371l54.87665,-31.79388l22.27893,38.4537z" fill="#ededed" stroke="#000000" stroke-width="0"/><path d="M259.96125,163.02684l-5.26692,-9.09076l54.87663,-31.79389l5.26692,9.09076z" fill="#ff0000" stroke="#000000" stroke-width="0"/><path d="M305.8514,155.54372l-7.30953,-12.61634l15.77042,-9.13692l7.30953,12.61634z" fill="none" stroke="#000000" stroke-width="0.5"/><path d="M313.62036,169.38077l-6.87956,-11.8742l16.1415,-9.35191l6.87957,11.87421z" fill="none" stroke="#000000" stroke-width="0.5"/><path d="M277.81219,190.12695l-15.37152,-26.53144l34.50943,-19.99373l15.37152,26.53144z" fill="none" stroke="#000000" stroke-width="0.5"/><path d="M278.18325,189.91197l-15.37152,-26.53143l12.98742,-7.52453l15.37152,26.53144z" fill="#cbcbcb" stroke="#000000" stroke-width="0.5"/><path d="M260.83428,159.78297l-2.78582,-4.80836l17.51618,-10.14835l2.78582,4.80836z" fill="#ffffff" stroke="#000000" stroke-width="0.5"/><path d="M280.5145,147.9149l-2.48734,-4.29318l4.29318,-2.48734l2.48734,4.29318z" fill="#ffffff" stroke="none" stroke-width="0"/><path d="M287.63892,143.9091l-2.48734,-4.29318l4.29318,-2.48734l2.48734,4.29318z" fill="#ffffff" stroke="none" stroke-width="0"/><path d="M306.56145,146.70671c-1.12646,-1.94427 -0.46348,-4.43356 1.48079,-5.56002c1.94427,-1.12645 4.43357,-0.46348 5.56002,1.48079c1.12646,1.94427 0.46348,4.43356 -1.48079,5.56002c-1.94427,1.12645 -4.43356,0.46348 -5.56002,-1.48079z" fill="#0024ff" stroke="none" stroke-width="0"/><path d="M310.06157,160.07207c-0.68686,-1.18553 -0.28258,-2.7034 0.90294,-3.39026c1.18552,-0.68686 2.70338,-0.28261 3.39024,0.90292c0.68686,1.18553 0.28261,2.70339 -0.90291,3.39025c-1.18552,0.68686 -2.7034,0.28262 -3.39026,-0.90291z" fill="#0024ff" stroke="none" stroke-width="0"/></g><text transform="translate(284.97712,168.0811) rotate(-29.98254) scale(0.08447,0.08447)" font-size="40" xml:space="preserve" fill="#000000" fill-rule="nonzero" stroke="none" stroke-width="1" stroke-linecap="butt" stroke-linejoin="miter" stroke-miterlimit="10" stroke-dasharray="" stroke-dashoffset="0" font-family="Sans Serif" font-weight="normal" text-anchor="start" style="mix-blend-mode: normal"><tspan x="0" dy="0">Web Request</tspan></text><g fill-rule="nonzero" stroke-linecap="butt" stroke-miterlimit="10"><path d="M259.27117,166.66158l-39.54997,-20.26914l28.92576,-56.44109l39.54997,20.26913z" fill="#ededed" stroke="#000000" stroke-width="2"/><path d="M259.27117,166.66158l-39.54997,-20.26914l28.92576,-56.44109l39.54997,20.26913z" fill="#ededed" stroke="#000000" stroke-width="0"/><path d="M229.07113,151.18422l-9.34992,-4.79178l28.92574,-56.4411l9.34993,4.79179z" fill="#ff0000" stroke="#000000" stroke-width="0"/><path d="M263.60294,120.04811l-12.97601,-6.65014l8.31267,-16.22002l12.97602,6.65014z" fill="none" stroke="#000000" stroke-width="0.5"/><path d="M277.62611,127.47585l-12.21272,-6.25895l8.50826,-16.60167l12.21273,6.25895z" fill="none" stroke="#000000" stroke-width="0.5"/><path d="M258.75145,164.30486l-27.28781,-13.98485l18.19009,-35.49325l27.28781,13.98485z" fill="none" stroke="#000000" stroke-width="0.5"/><path d="M258.94704,163.92322l-27.28781,-13.98485l6.84573,-13.35767l27.28781,13.98486z" fill="#cbcbcb" stroke="#000000" stroke-width="0.5"/><path d="M228.04895,147.98422l-4.94544,-2.53451l9.23287,-18.01554l4.94544,2.53452z" fill="#ffffff" stroke="#000000" stroke-width="0.5"/><path d="M238.17023,127.35119l-4.41557,-2.26296l2.26296,-4.41558l4.41557,2.26297z" fill="#ffffff" stroke="none" stroke-width="0"/><path d="M241.99154,120.12614l-4.41557,-2.26296l2.26296,-4.41557l4.41557,2.26296z" fill="#ffffff" stroke="none" stroke-width="0"/><path d="M259.41566,112.2338c-1.9997,-1.02483 -2.78998,-3.47669 -1.76515,-5.47639c1.02483,-1.9997 3.47669,-2.78998 5.47639,-1.76514c1.9997,1.02483 2.78998,3.47668 1.76515,5.47638c-1.02483,1.9997 -3.47669,2.78998 -5.47639,1.76515z" fill="#0024ff" stroke="none" stroke-width="0"/><path d="M269.59434,121.57606c-1.21933,-0.62489 -1.70119,-2.11995 -1.07629,-3.33928c0.62489,-1.21932 2.11993,-1.70119 3.33925,-1.0763c1.21933,0.62489 1.7012,2.11993 1.07631,3.33925c-0.62489,1.21932 -2.11993,1.70121 -3.33926,1.07632z" fill="#0024ff" stroke="none" stroke-width="0"/></g><text transform="translate(252.84008,141.89032) rotate(-62.76002) scale(0.08447,0.08447)" font-size="40" xml:space="preserve" fill="#000000" fill-rule="nonzero" stroke="none" stroke-width="1" stroke-linecap="butt" stroke-linejoin="miter" stroke-miterlimit="10" stroke-dasharray="" stroke-dashoffset="0" font-family="Sans Serif" font-weight="normal" text-anchor="start" style="mix-blend-mode: normal"><tspan x="0" dy="0">Web Request</tspan></text><g fill-rule="nonzero" stroke-linecap="butt" stroke-miterlimit="10"><path d="M225.08178,225.96629l35.61213,-26.58598l37.9404,50.82148l-35.61212,26.58598z" fill="#ededed" stroke="#000000" stroke-width="2"/><path d="M225.08178,225.96629l35.61213,-26.58598l37.9404,50.82148l-35.61212,26.58598z" fill="#ededed" stroke="#000000" stroke-width="0"/><path d="M252.27493,205.66545l8.41898,-6.28513l37.94041,50.82147l-8.41899,6.28514z" fill="#ff0000" stroke="#000000" stroke-width="0"/><path d="M265.0268,250.37891l11.68404,-8.72264l10.9033,14.60505l-11.68404,8.72264z" fill="none" stroke="#000000" stroke-width="0.5"/><path d="M252.18353,259.69937l10.99675,-8.20953l11.15985,14.94871l-10.99675,8.20954z" fill="none" stroke="#000000" stroke-width="0.5"/><path d="M227.42661,226.53729l24.57087,-18.3432l23.859,31.95932l-24.57087,18.3432z" fill="none" stroke="#000000" stroke-width="0.5"/><path d="M227.68315,226.88093l24.57087,-18.34321l8.97919,12.0277l-24.57087,18.34321z" fill="#cbcbcb" stroke="#000000" stroke-width="0.5"/><path d="M255.59812,206.1566l4.45305,-3.32439l12.11026,16.2218l-4.45304,3.32438z" fill="#ffffff" stroke="#000000" stroke-width="0.5"/><path d="M269.66736,224.32852l3.97593,-2.9682l2.96821,3.97593l-3.97594,2.9682z" fill="#ffffff" stroke="none" stroke-width="0"/><path d="M274.47195,230.9406l3.97593,-2.9682l2.9682,3.97593l-3.97593,2.9682z" fill="#ffffff" stroke="none" stroke-width="0"/><path d="M273.88653,250.05987c1.80059,-1.34422 4.34996,-0.97426 5.69418,0.82634c1.34422,1.80059 0.97426,4.34996 -0.82633,5.69418c-1.80059,1.34422 -4.34995,0.97427 -5.69418,-0.82633c-1.34422,-1.80059 -0.97426,-4.34996 0.82634,-5.69419z" fill="#0024ff" stroke="none" stroke-width="0"/><path d="M261.01698,255.08559c1.09792,-0.81965 2.65242,-0.59403 3.47207,0.50388c0.81964,1.09792 0.59406,2.6524 -0.50386,3.47205c-1.09792,0.81964 -2.65241,0.59407 -3.47206,-0.50385c-0.81964,-1.09792 -0.59407,-2.65242 0.50385,-3.47206z" fill="#0024ff" stroke="none" stroke-width="0"/></g><text transform="translate(250.15436,231.09855) rotate(53.36275) scale(0.08447,0.08447)" font-size="40" xml:space="preserve" fill="#000000" fill-rule="nonzero" stroke="none" stroke-width="1" stroke-linecap="butt" stroke-linejoin="miter" stroke-miterlimit="10" stroke-dasharray="" stroke-dashoffset="0" font-family="Sans Serif" font-weight="normal" text-anchor="start" style="mix-blend-mode: normal"><tspan x="0" dy="0">Web Request</tspan></text></g></g></svg>